<mxfile type="device" compressed="false">
    <diagram id="Topology" name="Topology">
      <mxGraphModel dx="1000" dy="1000" grid="1" gridSize="10" guides="1" tooltips="1" connect="1" arrows="1" fold="1" page="1" pageScale="1" pageWidth="827" pageHeight="1169" math="0" shadow="1">
        <root>
          <mxCell id="0" />   
          <mxCell id="1" parent="0" />
        <object id="p1" label="p1 1.255.0.2/32">
      <mxCell style="rounded=1;whiteSpace=wrap;html=1;" vertex="1" parent="1">
          <mxGeometry x="180" y="320" width="80" height="60" as="geometry" />
      </mxCell>
    </object><object id="p2" label="p2 1.255.0.3/32">
      <mxCell style="rounded=1;whiteSpace=wrap;html=1;" vertex="1" parent="1">
          <mxGeometry x="520" y="320" width="80" height="60" as="geometry" />
      </mxCell>
    </object><mxCell id="e9067e8ab555bc2be04cd6e1b6c7eb32-src" value="Gi0/0/0/1" style="labelBackgroundColor=#ffffff;;" vertex="1" connectable="0" parent="e9067e8ab555bc2be04cd6e1b6c7eb32">
      <mxGeometry x="-0.5" relative="1" as="geometry">
        <mxPoint as="offset" />
      </mxGeometry>
    </mxCell><mxCell id="e9067e8ab555bc2be04cd6e1b6c7eb32-trgt" value="Gi0-0-0-1" style="labelBackgroundColor=#ffffff;;" vertex="1" connectable="0" parent="e9067e8ab555bc2be04cd6e1b6c7eb32">
      <mxGeometry x="0.5" relative="-1" as="geometry">
        <mxPoint as="offset" />
      </mxGeometry>
    </mxCell><object id="e9067e8ab555bc2be04cd6e1b6c7eb32" label="" src_label="Gi0/0/0/1" trgt_label="Gi0-0-0-1" source="p1" target="p2">
      <mxCell style="endArrow=none;" edge="1" parent="1" source="p1" target="p2">
          <mxGeometry relative="1" as="geometry" />
      </mxCell>
    </object><mxCell id="f98a79efd6d5df3a851af2bd6b60f85c-src" value="Gi0/0/0/2" style="labelBackgroundColor=#ffffff;;" vertex="1" connectable="0" parent="f98a79efd6d5df3a851af2bd6b60f85c">
      <mxGeometry x="-0.5" relative="1" as="geometry">
        <mxPoint as="offset" />
      </mxGeometry>
    </mxCell><mxCell id="f98a79efd6d5df3a851af2bd6b60f85c-trgt" value="Gi0-0-0-2" style="labelBackgroundColor=#ffffff;;" vertex="1" connectable="0" parent="f98a79efd6d5df3a851af2bd6b60f85c">
      <mxGeometry x="0.5" relative="-1" as="geometry">
        <mxPoint as="offset" />
      </mxGeometry>
    </mxCell><object id="f98a79efd6d5df3a851af2bd6b60f85c" label="" src_label="Gi0/0/0/2" trgt_label="Gi0-0-0-2" source="p1" target="p2">
      <mxCell style="endArrow=none;" edge="1" parent="1" source="p1" target="p2">
          <mxGeometry relative="1" as="geometry" />
      </mxCell>
    </object><object id="p3" label="p3 1.255.0.4/32">
      <mxCell style="rounded=1;whiteSpace=wrap;html=1;" vertex="1" parent="1">
          <mxGeometry x="520" y="597" width="80" height="60" as="geometry" />
      </mxCell>
    </object><mxCell id="c0b77748d5720a6d71e4702dba66e01e-src" value="Gi0-0-0-3" style="labelBackgroundColor=#ffffff;;" vertex="1" connectable="0" parent="c0b77748d5720a6d71e4702dba66e01e">
      <mxGeometry x="-0.5" relative="1" as="geometry">
        <mxPoint as="offset" />
      </mxGeometry>
    </mxCell><mxCell id="c0b77748d5720a6d71e4702dba66e01e-trgt" value="Gi0-0-0-1" style="labelBackgroundColor=#ffffff;;" vertex="1" connectable="0" parent="c0b77748d5720a6d71e4702dba66e01e">
      <mxGeometry x="0.5" relative="-1" as="geometry">
        <mxPoint as="offset" />
      </mxGeometry>
    </mxCell><object id="c0b77748d5720a6d71e4702dba66e01e" label="" src_label="Gi0-0-0-3" trgt_label="Gi0-0-0-1" source="p2" target="p3">
      <mxCell style="endArrow=none;" edge="1" parent="1" source="p2" target="p3">
          <mxGeometry relative="1" as="geometry" />
      </mxCell>
    </object><object id="p4" label="p4 1.255.0.5/32">
      <mxCell style="rounded=1;whiteSpace=wrap;html=1;" vertex="1" parent="1">
          <mxGeometry x="180" y="597" width="80" height="60" as="geometry" />
      </mxCell>
    </object><mxCell id="b9226f67d419f499f1e576dd0eee3b2b-src" value="Gi0-0-0-2" style="labelBackgroundColor=#ffffff;;" vertex="1" connectable="0" parent="b9226f67d419f499f1e576dd0eee3b2b">
      <mxGeometry x="-0.5" relative="1" as="geometry">
        <mxPoint as="offset" />
      </mxGeometry>
    </mxCell><mxCell id="b9226f67d419f499f1e576dd0eee3b2b-trgt" value="Gi0-0-0-1" style="labelBackgroundColor=#ffffff;;" vertex="1" connectable="0" parent="b9226f67d419f499f1e576dd0eee3b2b">
      <mxGeometry x="0.5" relative="-1" as="geometry">
        <mxPoint as="offset" />
      </mxGeometry>
    </mxCell><object id="b9226f67d419f499f1e576dd0eee3b2b" label="" src_label="Gi0-0-0-2" trgt_label="Gi0-0-0-1" source="p3" target="p4">
      <mxCell style="endArrow=none;" edge="1" parent="1" source="p3" target="p4">
          <mxGeometry relative="1" as="geometry" />
      </mxCell>
    </object><mxCell id="fbbfbf188e07a2fa0227e41f8df39c43-src" value="Gi0-0-0-3" style="labelBackgroundColor=#ffffff;;" vertex="1" connectable="0" parent="fbbfbf188e07a2fa0227e41f8df39c43">
      <mxGeometry x="-0.5" relative="1" as="geometry">
        <mxPoint as="offset" />
      </mxGeometry>
    </mxCell><mxCell id="fbbfbf188e07a2fa0227e41f8df39c43-trgt" value="Gi0-0-0-2" style="labelBackgroundColor=#ffffff;;" vertex="1" connectable="0" parent="fbbfbf188e07a2fa0227e41f8df39c43">
      <mxGeometry x="0.5" relative="-1" as="geometry">
        <mxPoint as="offset" />
      </mxGeometry>
    </mxCell><object id="fbbfbf188e07a2fa0227e41f8df39c43" label="" src_label="Gi0-0-0-3" trgt_label="Gi0-0-0-2" source="p3" target="p4">
      <mxCell style="endArrow=none;" edge="1" parent="1" source="p3" target="p4">
          <mxGeometry relative="1" as="geometry" />
      </mxCell>
    </object><mxCell id="c2b49a38429eb23325ca4269151b0a33-src" value="Gi0-0-0-3" style="labelBackgroundColor=#ffffff;;" vertex="1" connectable="0" parent="c2b49a38429eb23325ca4269151b0a33">
      <mxGeometry x="-0.5" relative="1" as="geometry">
        <mxPoint as="offset" />
      </mxGeometry>
    </mxCell><mxCell id="c2b49a38429eb23325ca4269151b0a33-trgt" value="Gi0/0/0/3" style="labelBackgroundColor=#ffffff;;" vertex="1" connectable="0" parent="c2b49a38429eb23325ca4269151b0a33">
      <mxGeometry x="0.5" relative="-1" as="geometry">
        <mxPoint as="offset" />
      </mxGeometry>
    </mxCell><object id="c2b49a38429eb23325ca4269151b0a33" label="" src_label="Gi0-0-0-3" trgt_label="Gi0/0/0/3" source="p4" target="p1">
      <mxCell style="endArrow=none;" edge="1" parent="1" source="p4" target="p1">
          <mxGeometry relative="1" as="geometry" />
      </mxCell>
    </object><object id="pe1" label="pe1 1.255.0.6/32">
      <mxCell style="rounded=1;whiteSpace=wrap;html=1;" vertex="1" parent="1">
          <mxGeometry x="354" y="120" width="80" height="60" as="geometry" />
      </mxCell>
    </object><mxCell id="c47b931a5d90596e8a8290f6a6347d39-src" value="Gi0-0-0-0" style="labelBackgroundColor=#ffffff;;" vertex="1" connectable="0" parent="c47b931a5d90596e8a8290f6a6347d39">
      <mxGeometry x="-0.5" relative="1" as="geometry">
        <mxPoint as="offset" />
      </mxGeometry>
    </mxCell><mxCell id="c47b931a5d90596e8a8290f6a6347d39-trgt" value="Gi0/0/0/4" style="labelBackgroundColor=#ffffff;;" vertex="1" connectable="0" parent="c47b931a5d90596e8a8290f6a6347d39">
      <mxGeometry x="0.5" relative="-1" as="geometry">
        <mxPoint as="offset" />
      </mxGeometry>
    </mxCell><object id="c47b931a5d90596e8a8290f6a6347d39" label="" src_label="Gi0-0-0-0" trgt_label="Gi0/0/0/4" source="pe1" target="p1">
      <mxCell style="endArrow=none;" edge="1" parent="1" source="pe1" target="p1">
          <mxGeometry relative="1" as="geometry" />
      </mxCell>
    </object><mxCell id="c9629124c12410585c80a9f9e733f177-src" value="Gi0-0-0-1" style="labelBackgroundColor=#ffffff;;" vertex="1" connectable="0" parent="c9629124c12410585c80a9f9e733f177">
      <mxGeometry x="-0.5" relative="1" as="geometry">
        <mxPoint as="offset" />
      </mxGeometry>
    </mxCell><mxCell id="c9629124c12410585c80a9f9e733f177-trgt" value="Gi0-0-0-4" style="labelBackgroundColor=#ffffff;;" vertex="1" connectable="0" parent="c9629124c12410585c80a9f9e733f177">
      <mxGeometry x="0.5" relative="-1" as="geometry">
        <mxPoint as="offset" />
      </mxGeometry>
    </mxCell><object id="c9629124c12410585c80a9f9e733f177" label="" src_label="Gi0-0-0-1" trgt_label="Gi0-0-0-4" source="pe1" target="p2">
      <mxCell style="endArrow=none;" edge="1" parent="1" source="pe1" target="p2">
          <mxGeometry relative="1" as="geometry" />
      </mxCell>
    </object><object id="pe2" label="pe2 1.255.0.7/32">
      <mxCell style="rounded=1;whiteSpace=wrap;html=1;" vertex="1" parent="1">
          <mxGeometry x="181" y="857" width="80" height="60" as="geometry" />
      </mxCell>
    </object><mxCell id="cf6f423b519ed3d2b258f1b4144f50ef-src" value="Gi0-0-0-0" style="labelBackgroundColor=#ffffff;;" vertex="1" connectable="0" parent="cf6f423b519ed3d2b258f1b4144f50ef">
      <mxGeometry x="-0.5" relative="1" as="geometry">
        <mxPoint as="offset" />
      </mxGeometry>
    </mxCell><mxCell id="cf6f423b519ed3d2b258f1b4144f50ef-trgt" value="Gi0-0-0-4" style="labelBackgroundColor=#ffffff;;" vertex="1" connectable="0" parent="cf6f423b519ed3d2b258f1b4144f50ef">
      <mxGeometry x="0.5" relative="-1" as="geometry">
        <mxPoint as="offset" />
      </mxGeometry>
    </mxCell><object id="cf6f423b519ed3d2b258f1b4144f50ef" label="" src_label="Gi0-0-0-0" trgt_label="Gi0-0-0-4" source="pe2" target="p3">
      <mxCell style="endArrow=none;" edge="1" parent="1" source="pe2" target="p3">
          <mxGeometry relative="1" as="geometry" />
      </mxCell>
    </object><mxCell id="6f996a88f7fc5f315764ff182f1576ad-src" value="Gi0-0-0-1" style="labelBackgroundColor=#ffffff;;" vertex="1" connectable="0" parent="6f996a88f7fc5f315764ff182f1576ad">
      <mxGeometry x="-0.5" relative="1" as="geometry">
        <mxPoint as="offset" />
      </mxGeometry>
    </mxCell><mxCell id="6f996a88f7fc5f315764ff182f1576ad-trgt" value="Gi0-0-0-4" style="labelBackgroundColor=#ffffff;;" vertex="1" connectable="0" parent="6f996a88f7fc5f315764ff182f1576ad">
      <mxGeometry x="0.5" relative="-1" as="geometry">
        <mxPoint as="offset" />
      </mxGeometry>
    </mxCell><object id="6f996a88f7fc5f315764ff182f1576ad" label="" src_label="Gi0-0-0-1" trgt_label="Gi0-0-0-4" source="pe2" target="p4">
      <mxCell style="endArrow=none;" edge="1" parent="1" source="pe2" target="p4">
          <mxGeometry relative="1" as="geometry" />
      </mxCell>
    </object><object id="pe3" label="pe3 1.255.0.8/32">
      <mxCell style="rounded=1;whiteSpace=wrap;html=1;" vertex="1" parent="1">
          <mxGeometry x="520" y="857" width="80" height="60" as="geometry" />
      </mxCell>
    </object><mxCell id="45de5689cf62955ee411b9a4e5638697-src" value="Gi0-0-0-0" style="labelBackgroundColor=#ffffff;;" vertex="1" connectable="0" parent="45de5689cf62955ee411b9a4e5638697">
      <mxGeometry x="-0.5" relative="1" as="geometry">
        <mxPoint as="offset" />
      </mxGeometry>
    </mxCell><mxCell id="45de5689cf62955ee411b9a4e5638697-trgt" value="Gi0-0-0-5" style="labelBackgroundColor=#ffffff;;" vertex="1" connectable="0" parent="45de5689cf62955ee411b9a4e5638697">
      <mxGeometry x="0.5" relative="-1" as="geometry">
        <mxPoint as="offset" />
      </mxGeometry>
    </mxCell><object id="45de5689cf62955ee411b9a4e5638697" label="" src_label="Gi0-0-0-0" trgt_label="Gi0-0-0-5" source="pe3" target="p3">
      <mxCell style="endArrow=none;" edge="1" parent="1" source="pe3" target="p3">
          <mxGeometry relative="1" as="geometry" />
      </mxCell>
    </object><mxCell id="9725e96b0e8efdadc00126a170ba5a9d-src" value="Gi0-0-0-1" style="labelBackgroundColor=#ffffff;;" vertex="1" connectable="0" parent="9725e96b0e8efdadc00126a170ba5a9d">
      <mxGeometry x="-0.5" relative="1" as="geometry">
        <mxPoint as="offset" />
      </mxGeometry>
    </mxCell><mxCell id="9725e96b0e8efdadc00126a170ba5a9d-trgt" value="Gi0-0-0-5" style="labelBackgroundColor=#ffffff;;" vertex="1" connectable="0" parent="9725e96b0e8efdadc00126a170ba5a9d">
      <mxGeometry x="0.5" relative="-1" as="geometry">
        <mxPoint as="offset" />
      </mxGeometry>
    </mxCell><object id="9725e96b0e8efdadc00126a170ba5a9d" label="" src_label="Gi0-0-0-1" trgt_label="Gi0-0-0-5" source="pe3" target="p4">
      <mxCell style="endArrow=none;" edge="1" parent="1" source="pe3" target="p4">
          <mxGeometry relative="1" as="geometry" />
      </mxCell>
    </object><object id="rr1" label="rr1 1.255.0.9/32">
      <mxCell style="rounded=1;whiteSpace=wrap;html=1;" vertex="1" parent="1">
          <mxGeometry x="-80" y="597" width="80" height="60" as="geometry" />
      </mxCell>
    </object><mxCell id="82650ae400fb1bb4b4fe1be722a21e82-src" value="Gi0-0-0-9" style="labelBackgroundColor=#ffffff;;" vertex="1" connectable="0" parent="82650ae400fb1bb4b4fe1be722a21e82">
      <mxGeometry x="-0.5" relative="1" as="geometry">
        <mxPoint as="offset" />
      </mxGeometry>
    </mxCell><mxCell id="82650ae400fb1bb4b4fe1be722a21e82-trgt" value="Gi0-0-0-0" style="labelBackgroundColor=#ffffff;;" vertex="1" connectable="0" parent="82650ae400fb1bb4b4fe1be722a21e82">
      <mxGeometry x="0.5" relative="-1" as="geometry">
        <mxPoint as="offset" />
      </mxGeometry>
    </mxCell><object id="82650ae400fb1bb4b4fe1be722a21e82" label="" src_label="Gi0-0-0-9" trgt_label="Gi0-0-0-0" source="rr1" target="p4">
      <mxCell style="endArrow=none;" edge="1" parent="1" source="rr1" target="p4">
          <mxGeometry relative="1" as="geometry" />
      </mxCell>
    </object><object id="rr2" label="rr2 1.255.0.10/32">
      <mxCell style="rounded=1;whiteSpace=wrap;html=1;" vertex="1" parent="1">
          <mxGeometry x="790" y="597" width="80" height="60" as="geometry" />
      </mxCell>
    </object><mxCell id="b37bd329a26038472951def05f9b7913-src" value="Gi0-0-0-9" style="labelBackgroundColor=#ffffff;;" vertex="1" connectable="0" parent="b37bd329a26038472951def05f9b7913">
      <mxGeometry x="-0.5" relative="1" as="geometry">
        <mxPoint as="offset" />
      </mxGeometry>
    </mxCell><mxCell id="b37bd329a26038472951def05f9b7913-trgt" value="Gi0-0-0-0" style="labelBackgroundColor=#ffffff;;" vertex="1" connectable="0" parent="b37bd329a26038472951def05f9b7913">
      <mxGeometry x="0.5" relative="-1" as="geometry">
        <mxPoint as="offset" />
      </mxGeometry>
    </mxCell><object id="b37bd329a26038472951def05f9b7913" label="" src_label="Gi0-0-0-9" trgt_label="Gi0-0-0-0" source="rr2" target="p3">
      <mxCell style="endArrow=none;" edge="1" parent="1" source="rr2" target="p3">
          <mxGeometry relative="1" as="geometry" />
      </mxCell>
    </object><object id="rr_top1" label="rr_top1 1.255.0.11/32">
      <mxCell style="rounded=1;whiteSpace=wrap;html=1;" vertex="1" parent="1">
          <mxGeometry x="-80" y="320" width="80" height="60" as="geometry" />
      </mxCell>
    </object><mxCell id="8c92d43ead27a72ec5f095d74169e1bd-src" value="Gi0-0-0-9" style="labelBackgroundColor=#ffffff;;" vertex="1" connectable="0" parent="8c92d43ead27a72ec5f095d74169e1bd">
      <mxGeometry x="-0.5" relative="1" as="geometry">
        <mxPoint as="offset" />
      </mxGeometry>
    </mxCell><mxCell id="8c92d43ead27a72ec5f095d74169e1bd-trgt" value="Gi0/0/0/0" style="labelBackgroundColor=#ffffff;;" vertex="1" connectable="0" parent="8c92d43ead27a72ec5f095d74169e1bd">
      <mxGeometry x="0.5" relative="-1" as="geometry">
        <mxPoint as="offset" />
      </mxGeometry>
    </mxCell><object id="8c92d43ead27a72ec5f095d74169e1bd" label="" src_label="Gi0-0-0-9" trgt_label="Gi0/0/0/0" source="rr_top1" target="p1">
      <mxCell style="endArrow=none;" edge="1" parent="1" source="rr_top1" target="p1">
          <mxGeometry relative="1" as="geometry" />
      </mxCell>
    </object><object id="rr_top2" label="rr_top2 1.255.0.12/32">
      <mxCell style="rounded=1;whiteSpace=wrap;html=1;" vertex="1" parent="1">
          <mxGeometry x="790" y="320" width="80" height="60" as="geometry" />
      </mxCell>
    </object><mxCell id="2e8d70be0738b55d6a9f70b55bec9a52-src" value="Gi0-0-0-9" style="labelBackgroundColor=#ffffff;;" vertex="1" connectable="0" parent="2e8d70be0738b55d6a9f70b55bec9a52">
      <mxGeometry x="-0.5" relative="1" as="geometry">
        <mxPoint as="offset" />
      </mxGeometry>
    </mxCell><mxCell id="2e8d70be0738b55d6a9f70b55bec9a52-trgt" value="Gi0-0-0-0" style="labelBackgroundColor=#ffffff;;" vertex="1" connectable="0" parent="2e8d70be0738b55d6a9f70b55bec9a52">
      <mxGeometry x="0.5" relative="-1" as="geometry">
        <mxPoint as="offset" />
      </mxGeometry>
    </mxCell><object id="2e8d70be0738b55d6a9f70b55bec9a52" label="" src_label="Gi0-0-0-9" trgt_label="Gi0-0-0-0" source="rr_top2" target="p2">
      <mxCell style="endArrow=none;" edge="1" parent="1" source="rr_top2" target="p2">
          <mxGeometry relative="1" as="geometry" />
      </mxCell>
    </object><object id="cpe1" label="cpe1 1.255.0.13/32">
      <mxCell style="rounded=1;whiteSpace=wrap;html=1;" vertex="1" parent="1">
          <mxGeometry x="240" y="-60" width="80" height="60" as="geometry" />
      </mxCell>
    </object><mxCell id="5fe14286cb6bf8baec4cdf3173925156-src" value="Gi0-0-0-0" style="labelBackgroundColor=#ffffff;;" vertex="1" connectable="0" parent="5fe14286cb6bf8baec4cdf3173925156">
      <mxGeometry x="-0.5" relative="1" as="geometry">
        <mxPoint as="offset" />
      </mxGeometry>
    </mxCell><mxCell id="5fe14286cb6bf8baec4cdf3173925156-trgt" value="Gi0-0-0-2" style="labelBackgroundColor=#ffffff;;" vertex="1" connectable="0" parent="5fe14286cb6bf8baec4cdf3173925156">
      <mxGeometry x="0.5" relative="-1" as="geometry">
        <mxPoint as="offset" />
      </mxGeometry>
    </mxCell><object id="5fe14286cb6bf8baec4cdf3173925156" label="" src_label="Gi0-0-0-0" trgt_label="Gi0-0-0-2" source="cpe1" target="pe1">
      <mxCell style="endArrow=none;" edge="1" parent="1" source="cpe1" target="pe1">
          <mxGeometry relative="1" as="geometry" />
      </mxCell>
    </object><object id="cpe2" label="cpe2 1.255.0.14/32">
      <mxCell style="rounded=1;whiteSpace=wrap;html=1;" vertex="1" parent="1">
          <mxGeometry x="354" y="1057.09" width="80" height="60" as="geometry" />
      </mxCell>
    </object><mxCell id="5066e24b207fae89739151bfe9c77329-src" value="Gi0-0-0-0" style="labelBackgroundColor=#ffffff;;" vertex="1" connectable="0" parent="5066e24b207fae89739151bfe9c77329">
      <mxGeometry x="-0.5" relative="1" as="geometry">
        <mxPoint as="offset" />
      </mxGeometry>
    </mxCell><mxCell id="5066e24b207fae89739151bfe9c77329-trgt" value="Gi0-0-0-2" style="labelBackgroundColor=#ffffff;;" vertex="1" connectable="0" parent="5066e24b207fae89739151bfe9c77329">
      <mxGeometry x="0.5" relative="-1" as="geometry">
        <mxPoint as="offset" />
      </mxGeometry>
    </mxCell><object id="5066e24b207fae89739151bfe9c77329" label="" src_label="Gi0-0-0-0" trgt_label="Gi0-0-0-2" source="cpe2" target="pe2">
      <mxCell style="endArrow=none;" edge="1" parent="1" source="cpe2" target="pe2">
          <mxGeometry relative="1" as="geometry" />
      </mxCell>
    </object><mxCell id="813acadd35b70088a7d306f025854342-src" value="Gi0-0-0-1" style="labelBackgroundColor=#ffffff;;" vertex="1" connectable="0" parent="813acadd35b70088a7d306f025854342">
      <mxGeometry x="-0.5" relative="1" as="geometry">
        <mxPoint as="offset" />
      </mxGeometry>
    </mxCell><mxCell id="813acadd35b70088a7d306f025854342-trgt" value="Gi0-0-0-2" style="labelBackgroundColor=#ffffff;;" vertex="1" connectable="0" parent="813acadd35b70088a7d306f025854342">
      <mxGeometry x="0.5" relative="-1" as="geometry">
        <mxPoint as="offset" />
      </mxGeometry>
    </mxCell><object id="813acadd35b70088a7d306f025854342" label="" src_label="Gi0-0-0-1" trgt_label="Gi0-0-0-2" source="cpe2" target="pe3">
      <mxCell style="endArrow=none;" edge="1" parent="1" source="cpe2" target="pe3">
          <mxGeometry relative="1" as="geometry" />
      </mxCell>
    </object><object id="cpe3" label="cpe3 1.255.0.15/32">
      <mxCell style="rounded=1;whiteSpace=wrap;html=1;" vertex="1" parent="1">
          <mxGeometry x="110" y="1057.09" width="80" height="60" as="geometry" />
      </mxCell>
    </object><mxCell id="3ed9f301a08e538cddd686765b2f4186-src" value="Gi0-0-0-0" style="labelBackgroundColor=#ffffff;;" vertex="1" connectable="0" parent="3ed9f301a08e538cddd686765b2f4186">
      <mxGeometry x="-0.5" relative="1" as="geometry">
        <mxPoint as="offset" />
      </mxGeometry>
    </mxCell><mxCell id="3ed9f301a08e538cddd686765b2f4186-trgt" value="Gi0-0-0-3" style="labelBackgroundColor=#ffffff;;" vertex="1" connectable="0" parent="3ed9f301a08e538cddd686765b2f4186">
      <mxGeometry x="0.5" relative="-1" as="geometry">
        <mxPoint as="offset" />
      </mxGeometry>
    </mxCell><object id="3ed9f301a08e538cddd686765b2f4186" label="" src_label="Gi0-0-0-0" trgt_label="Gi0-0-0-3" source="cpe3" target="pe2">
      <mxCell style="endArrow=none;" edge="1" parent="1" source="cpe3" target="pe2">
          <mxGeometry relative="1" as="geometry" />
      </mxCell>
    </object><mxCell id="58d23f00c2f049a44edf3b94d52201e0-src" value="Gi0-0-0-1" style="labelBackgroundColor=#ffffff;;" vertex="1" connectable="0" parent="58d23f00c2f049a44edf3b94d52201e0">
      <mxGeometry x="-0.5" relative="1" as="geometry">
        <mxPoint as="offset" />
      </mxGeometry>
    </mxCell><mxCell id="58d23f00c2f049a44edf3b94d52201e0-trgt" value="Gi0-0-0-3" style="labelBackgroundColor=#ffffff;;" vertex="1" connectable="0" parent="58d23f00c2f049a44edf3b94d52201e0">
      <mxGeometry x="0.5" relative="-1" as="geometry">
        <mxPoint as="offset" />
      </mxGeometry>
    </mxCell><object id="58d23f00c2f049a44edf3b94d52201e0" label="" src_label="Gi0-0-0-1" trgt_label="Gi0-0-0-3" source="cpe3" target="pe3">
      <mxCell style="endArrow=none;" edge="1" parent="1" source="cpe3" target="pe3">
          <mxGeometry relative="1" as="geometry" />
      </mxCell>
    </object><object id="cpe4" label="cpe4 1.255.0.16/32">
      <mxCell style="rounded=1;whiteSpace=wrap;html=1;" vertex="1" parent="1">
          <mxGeometry x="600" y="1057.09" width="80" height="60" as="geometry" />
      </mxCell>
    </object><mxCell id="b3debff3aaac2548c14a62542ac518ef-src" value="Gi0-0-0-0" style="labelBackgroundColor=#ffffff;;" vertex="1" connectable="0" parent="b3debff3aaac2548c14a62542ac518ef">
      <mxGeometry x="-0.5" relative="1" as="geometry">
        <mxPoint as="offset" />
      </mxGeometry>
    </mxCell><mxCell id="b3debff3aaac2548c14a62542ac518ef-trgt" value="Gi0-0-0-4" style="labelBackgroundColor=#ffffff;;" vertex="1" connectable="0" parent="b3debff3aaac2548c14a62542ac518ef">
      <mxGeometry x="0.5" relative="-1" as="geometry">
        <mxPoint as="offset" />
      </mxGeometry>
    </mxCell><object id="b3debff3aaac2548c14a62542ac518ef" label="" src_label="Gi0-0-0-0" trgt_label="Gi0-0-0-4" source="cpe4" target="pe3">
      <mxCell style="endArrow=none;" edge="1" parent="1" source="cpe4" target="pe3">
          <mxGeometry relative="1" as="geometry" />
      </mxCell>
    </object><object id="cpe5" label="cpe5 1.255.0.17/32">
      <mxCell style="rounded=1;whiteSpace=wrap;html=1;" vertex="1" parent="1">
          <mxGeometry x="470" y="-60" width="80" height="60" as="geometry" />
      </mxCell>
    </object><mxCell id="2c61a7d4e3fd86604a375e7b9035666f-src" value="Gi2" style="labelBackgroundColor=#ffffff;;" vertex="1" connectable="0" parent="2c61a7d4e3fd86604a375e7b9035666f">
      <mxGeometry x="-0.5" relative="1" as="geometry">
        <mxPoint as="offset" />
      </mxGeometry>
    </mxCell><mxCell id="2c61a7d4e3fd86604a375e7b9035666f-trgt" value="Gi0-0-0-3" style="labelBackgroundColor=#ffffff;;" vertex="1" connectable="0" parent="2c61a7d4e3fd86604a375e7b9035666f">
      <mxGeometry x="0.5" relative="-1" as="geometry">
        <mxPoint as="offset" />
      </mxGeometry>
    </mxCell><object id="2c61a7d4e3fd86604a375e7b9035666f" label="" src_label="Gi2" trgt_label="Gi0-0-0-3" source="cpe5" target="pe1">
      <mxCell style="endArrow=none;" edge="1" parent="1" source="cpe5" target="pe1">
          <mxGeometry relative="1" as="geometry" />
      </mxCell>
    </object></root>
      </mxGraphModel>
    </diagram></mxfile>